<svg aria-hidden="true" style="position: absolute; width: 0; height: 0; overflow: hidden;" version="1.1" xmlns="http://www.w3.org/2000/svg" xmlns:xlink="http://www.w3.org/1999/xlink">
<defs>
<symbol id="icon-arrows-down" viewBox="0 0 32 32">
<path stroke-linejoin="round" stroke-linecap="round" stroke-miterlimit="4" stroke-width="1" d="M15.995 5.996l0.004 20.007M15.998 26.004l5.386-5.386M15.998 26.004l-5.387-5.386"></path>
</symbol>
<symbol id="icon-arrows-left" viewBox="0 0 32 32">
<path stroke-linejoin="round" stroke-linecap="round" stroke-miterlimit="4" stroke-width="1" d="M25.996 16l-19.996 0.004M6 16.004l5.384 5.386M6 16.004l5.384-5.386"></path>
</symbol>
<symbol id="icon-arrows-left-short" viewBox="0 0 32 32">
<path stroke-linejoin="round" stroke-linecap="round" stroke-miterlimit="4" stroke-width="1" d="M22 16.004h-12M10 16.004l5.384 5.386M10 16.004l5.384-5.386"></path>
</symbol>
<symbol id="icon-arrows-right" viewBox="0 0 32 32">
<path stroke-linejoin="round" stroke-linecap="round" stroke-miterlimit="4" stroke-width="1" d="M6 16.004l19.996-0.004M25.996 16l-5.384-5.386M25.996 16l-5.384 5.386"></path>
</symbol>
<symbol id="icon-arrows-right-short" viewBox="0 0 32 32">
<path stroke-linejoin="round" stroke-linecap="round" stroke-miterlimit="4" stroke-width="1" d="M10 16.004h12M22 16.004l-5.384 5.386M22 16.004l-5.384-5.386"></path>
</symbol>
<symbol id="icon-arrows-up" viewBox="0 0 32 32">
<path stroke-linejoin="round" stroke-linecap="round" stroke-miterlimit="4" stroke-width="1" d="M15.998 26.004l-0.004-20.007M15.994 5.996l-5.386 5.387M15.994 5.996l5.387 5.387"></path>
</symbol>
<!-- ++++++++++++++++++++++++++++++ -->
<symbol id="icon-bookmark" viewBox="0 0 32 32">
<path stroke-linejoin="round" stroke-linecap="round" stroke-miterlimit="4" stroke-width="1.3333" d="M11.615 25.5h-5.115v-5.125l10.596-10.617M11.615 25.5h13.885M11.615 25.5l10.596-10.617M17.096 9.758l2.192-2.197c1.413-1.415 3.703-1.415 5.115 0s1.413 3.71 0 5.125l-2.192 2.197M17.096 9.758l5.115 5.125"></path>
</symbol>
<!-- ============================== -->
<symbol id="icon-bookmark-alternative" viewBox="0 0 32 32">
<path stroke-linejoin="round" stroke-linecap="round" stroke-miterlimit="4" stroke-width="1" d="M15.996 4.5c2.033 0 3.864 0.233 5.177 0.463 1.168 0.205 2.090 1.002 2.388 2.118 0.471 1.764 1.012 4.734 0.932 8.909-0.089 4.623-0.845 7.785-1.48 9.652-0.131 0.385-0.413 0.586-0.727 0.636-0.325 0.051-0.714-0.060-1.023-0.377-0.795-0.816-1.781-1.778-2.702-2.539-0.46-0.38-0.916-0.72-1.331-0.967-0.395-0.235-0.831-0.433-1.231-0.434-0.394 0-0.849 0.195-1.273 0.427-0.448 0.245-0.95 0.583-1.466 0.963-1.033 0.762-2.161 1.725-3.076 2.541-0.343 0.306-0.754 0.382-1.087 0.296-0.324-0.084-0.599-0.328-0.693-0.746-0.429-1.904-0.9-5.003-0.9-9.442 0-4.364 0.511-7.273 0.952-8.971 0.281-1.083 1.174-1.855 2.313-2.057 1.316-0.233 3.17-0.473 5.23-0.473z"></path>
</symbol>
<symbol id="icon-burger-regular" viewBox="0 0 32 32">
<path stroke-linejoin="miter" stroke-linecap="round" stroke-miterlimit="4" stroke-width="1" d="M7.5 9.5h17M7.5 21.5h17M7.5 15.5h17"></path>
</symbol>
<symbol id="icon-chevron-down" viewBox="0 0 32 32">
<path stroke-linejoin="round" stroke-linecap="round" stroke-miterlimit="4" stroke-width="1" d="M25 11.5l-9 9-9-9"></path>
</symbol>
<symbol id="icon-chevron-down-small" viewBox="0 0 32 32">
<path stroke-linejoin="round" stroke-linecap="round" stroke-miterlimit="4" stroke-width="1" d="M22 13l-6 6-6-6"></path>
</symbol>
<symbol id="icon-chevron-left" viewBox="0 0 32 32">
<path stroke-linejoin="round" stroke-linecap="round" stroke-miterlimit="4" stroke-width="1" d="M20.5 25l-9-9 9-9"></path>
</symbol>
<symbol id="icon-chevron-left-small" viewBox="0 0 32 32">
<path stroke-linejoin="round" stroke-linecap="round" stroke-miterlimit="4" stroke-width="1" d="M19 22l-6-6 6-6"></path>
</symbol>
<symbol id="icon-chevron-right" viewBox="0 0 32 32">
<path stroke-linejoin="round" stroke-linecap="round" stroke-miterlimit="4" stroke-width="1" d="M11.5 7l9 9-9 9"></path>
</symbol>
<symbol id="icon-chevron-right-small" viewBox="0 0 32 32">
<path stroke-linejoin="round" stroke-linecap="round" stroke-miterlimit="4" stroke-width="1" d="M13 10l6 6-6 6"></path>
</symbol>
<symbol id="icon-chevron-up" viewBox="0 0 32 32">
<path stroke-linejoin="round" stroke-linecap="round" stroke-miterlimit="4" stroke-width="1" d="M7 20.5l9-9 9 9"></path>
</symbol>
<symbol id="icon-chevron-up-small" viewBox="0 0 32 32">
<path stroke-linejoin="round" stroke-linecap="round" stroke-miterlimit="4" stroke-width="1" d="M10 19l6-6 6 6"></path>
</symbol>
<symbol id="icon-close" viewBox="0 0 32 32">
<path stroke-linejoin="round" stroke-linecap="round" stroke-miterlimit="4" stroke-width="1" d="M7 7l9 9M16 16l-9 9M16 16l9 9M16 16l9-9"></path>
</symbol>
<symbol id="icon-close-small" viewBox="0 0 32 32">
<path stroke-linejoin="round" stroke-linecap="round" stroke-miterlimit="4" stroke-width="1" d="M10 10l6 6M16 16l-6 6M16 16l6 6M16 16l6-6"></path>
</symbol>
<symbol id="icon-delete" viewBox="0 0 32 32">
<path stroke-linejoin="round" stroke-linecap="round" stroke-miterlimit="4" stroke-width="1" d="M16 21.846v-8.769M6.5 9.423h2.192M25.5 9.423h-2.192M19.654 9.423h-7.308M19.654 9.423v-1.462c0-0.807-0.654-1.462-1.462-1.462h-4.385c-0.807 0-1.462 0.654-1.462 1.462v1.462M19.654 9.423h3.654M12.346 9.423h-3.654M23.308 9.423v13.154c0 1.614-1.309 2.923-2.923 2.923h-8.769c-1.614 0-2.923-1.309-2.923-2.923v-13.154"></path>
</symbol>
<symbol id="icon-eye" viewBox="0 0 32 32">
<path stroke-linejoin="miter" stroke-linecap="round" stroke-miterlimit="4" stroke-width="1" d="M15.654 11.909c-4.779 0-8.654 4.621-8.654 5.795s3.874 5.796 8.654 5.796c4.779 0 8.654-4.621 8.654-5.796s-3.875-5.795-8.654-5.795zM15.654 11.909c-2.103 0-3.808 1.679-3.808 3.75s1.705 3.75 3.808 3.75 3.808-1.679 3.808-3.75c0-2.071-1.705-3.75-3.808-3.75zM25 11.909c-2.636-2.166-5.713-3.409-9-3.409s-6.364 1.243-9 3.409"></path>
</symbol>
<symbol id="icon-eye-crossed" viewBox="0 0 32 32">
<path stroke-linejoin="miter" stroke-linecap="round" stroke-miterlimit="4" stroke-width="1" d="M19.214 22.65c-1.086 0.504-2.291 0.832-3.56 0.832-4.779 0-8.654-4.655-8.654-5.838 0-0.67 1.245-2.456 3.194-3.878M23.269 19.516c0.662-0.797 1.038-1.502 1.038-1.871 0-1.183-3.874-5.838-8.654-5.838 2.103 0 3.808 1.691 3.808 3.777M15.654 19.362c-2.103 0-3.808-1.691-3.808-3.777M25 11.807c-2.636-2.181-5.713-3.434-9-3.434-1.185 0-2.342 0.163-3.462 0.473M7 11.807c0.244-0.202 0.492-0.396 0.744-0.582M7 7l16.714 16.875"></path>
</symbol>
<symbol id="icon-heart" viewBox="0 0 32 32">
<path stroke-linejoin="round" stroke-linecap="round" stroke-miterlimit="4" stroke-width="1" d="M24.098 8.903c-1.869-1.871-4.899-1.871-6.768 0l-1.331 1.332-1.331-1.332c-1.869-1.871-4.899-1.871-6.768 0s-1.869 4.904 0 6.775l8.098 8.786 8.098-8.786c1.869-1.871 1.869-4.904 0-6.775z"></path>
</symbol>
<symbol id="icon-home" viewBox="0 0 32 32">
<path d="M6.5 16.524v0zM6.5 24.044v0zM24.038 25.5v0zM7.962 25.5v0zM25.5 16.524v0zM25.5 24.044v0zM24.727 14.55v0zM18.15 7.439v0zM13.85 7.439v0zM7.273 14.55v0zM13.077 18.219v0zM13.077 24.772v0zM18.192 25.5v0zM13.808 25.5v0zM18.923 18.22v0zM18.923 24.772v0zM18.192 17.491v0zM13.808 17.491v0zM6.5 16.524h-0.5v7.52h1v-7.52h-0.5zM24.038 25.5v-0.5h-16.077v1h16.077v-0.5zM25.5 16.524h-0.5v7.52h1v-7.52h-0.5zM24.727 14.55l0.367-0.339-6.577-7.112-0.734 0.679 6.577 7.112 0.367-0.339zM13.85 7.439l-0.367-0.34-6.577 7.112 0.734 0.679 6.577-7.112-0.367-0.339zM18.15 7.439l0.367-0.339c-1.356-1.466-3.678-1.466-5.034 0l0.734 0.679c0.96-1.038 2.605-1.038 3.565 0l0.367-0.34zM25.5 16.524h0.5c0-0.857-0.324-1.683-0.906-2.313l-0.734 0.679c0.412 0.446 0.64 1.029 0.64 1.634h0.5zM6.5 16.524h0.5c0-0.605 0.228-1.188 0.64-1.634l-0.734-0.679c-0.583 0.63-0.906 1.456-0.906 2.313h0.5zM6.5 24.044h-0.5c0 1.082 0.88 1.956 1.962 1.956v-1c-0.533 0-0.962-0.43-0.962-0.956h-0.5zM24.038 25.5v0.5c1.081 0 1.962-0.874 1.962-1.956h-1c0 0.526-0.429 0.956-0.962 0.956v0.5zM13.077 18.219h-0.5v6.553h1v-6.553h-0.5zM18.192 25.5v-0.5h-4.385v1h4.385v-0.5zM18.923 18.22h-0.5v6.552h1v-6.552h-0.5zM18.192 17.491v-0.5h-4.385v1h4.385v-0.5zM18.923 18.22h0.5c0-0.68-0.553-1.228-1.231-1.228v1c0.129 0 0.231 0.104 0.231 0.228h0.5zM13.077 18.219h0.5c0-0.124 0.102-0.228 0.231-0.228v-1c-0.678 0-1.231 0.548-1.231 1.228h0.5zM13.077 24.772h-0.5c0 0.68 0.553 1.228 1.231 1.228v-1c-0.129 0-0.231-0.104-0.231-0.228h-0.5zM18.192 25.5v0.5c0.678 0 1.231-0.548 1.231-1.228h-1c0 0.124-0.102 0.228-0.231 0.228v0.5z"></path>
</symbol>
<symbol id="icon-log-in" viewBox="0 0 32 32">
<path stroke-linejoin="round" stroke-linecap="round" stroke-miterlimit="4" stroke-width="1" d="M25.5 16h-14.615M10.885 16l4.385-4.385M10.885 16l4.385 4.385M13.077 6.5h-3.654c-1.614 0-2.923 1.309-2.923 2.923v13.154c0 1.614 1.309 2.923 2.923 2.923h3.654"></path>
</symbol>
<symbol id="icon-log-out" viewBox="0 0 32 32">
<path stroke-linejoin="round" stroke-linecap="round" stroke-miterlimit="4" stroke-width="1" d="M13.077 6.5h-3.654c-1.614 0-2.923 1.309-2.923 2.923v13.154c0 1.614 1.309 2.923 2.923 2.923h3.654M11.5 16h14.615M26.115 16l-4.385 4.385M26.115 16l-4.385-4.385"></path>
</symbol>
<!-- ++++++++++++++++++++++++++++++ -->
<symbol id="icon-photo" viewBox="0 0 38 32">
<path stroke-linejoin="miter" stroke-linecap="butt" stroke-miterlimit="4" stroke-width="1.0492" d="M25.834 18.324c0 3.209-3.111 5.81-6.948 5.81s-6.948-2.601-6.948-5.81c0-3.209 3.111-5.81 6.948-5.81s6.948 2.601 6.948 5.81z"></path>
<path stroke-linejoin="miter" stroke-linecap="butt" stroke-miterlimit="4" stroke-width="1.0492" d="M0.82 26.336v-14.161c0-2.38 2.307-4.309 5.153-4.309 1.952 0 3.736-0.922 4.609-2.382l1.168-1.953c0.966-1.616 2.942-2.637 5.103-2.637h4.066c2.161 0 4.136 1.021 5.103 2.637l1.168 1.953c0.873 1.46 2.657 2.382 4.609 2.382 2.846 0 5.153 1.929 5.153 4.309v14.161c0 2.635-2.554 4.77-5.705 4.77h-24.721c-3.151 0-5.705-2.136-5.705-4.77z"></path>
</symbol>
<!-- ============================== -->
<symbol id="icon-search" viewBox="0 0 32 32">
<path stroke-linejoin="miter" stroke-linecap="round" stroke-miterlimit="4" stroke-width="1" d="M25 25l-4.413-4.405M20.587 20.595c1.443-1.441 2.336-3.433 2.336-5.634 0-4.397-3.564-7.962-7.962-7.962s-7.962 3.564-7.962 7.962c0 4.397 3.564 7.962 7.962 7.962 2.197 0 4.185-0.89 5.626-2.328z"></path>
</symbol>
<symbol id="icon-share-ios-big" viewBox="0 0 32 32">
<path stroke-linejoin="round" stroke-linecap="round" stroke-miterlimit="4" stroke-width="1" d="M16 19v-15M16 4l-4.042 3.6M16 4l4.042 3.6M12.16 11h-4.046c-0.947 0-1.714 0.768-1.714 1.714v13.572c0 0.947 0.768 1.714 1.714 1.714h15.771c0.947 0 1.714-0.768 1.714-1.714v-13.572c0-0.947-0.767-1.714-1.714-1.714h-4.046"></path>
</symbol>
<symbol id="icon-heroicons" viewBox="0 0 32 32">
<path d="M4.799 8.001c0-0.424 0.169-0.831 0.469-1.131s0.707-0.469 1.131-0.469h19.2c0.424 0 0.831 0.169 1.131 0.469s0.469 0.707 0.469 1.131-0.169 0.831-0.469 1.131c-0.3 0.3-0.707 0.469-1.131 0.469h-19.2c-0.424 0-0.831-0.169-1.131-0.469s-0.469-0.707-0.469-1.131z"></path>
<path d="M4.799 16.001c0-0.424 0.169-0.831 0.469-1.131s0.707-0.469 1.131-0.469h19.2c0.424 0 0.831 0.169 1.131 0.469s0.469 0.707 0.469 1.131c0 0.424-0.169 0.831-0.469 1.131s-0.707 0.469-1.131 0.469h-19.2c-0.424 0-0.831-0.169-1.131-0.469s-0.469-0.707-0.469-1.131z"></path>
<path d="M4.799 24.001c0-0.424 0.169-0.831 0.469-1.131s0.707-0.469 1.131-0.469h19.2c0.424 0 0.831 0.169 1.131 0.469s0.469 0.707 0.469 1.131c0 0.424-0.169 0.831-0.469 1.131s-0.707 0.469-1.131 0.469h-19.2c-0.424 0-0.831-0.169-1.131-0.469s-0.469-0.707-0.469-1.131z"></path>
</symbol>
<symbol id="icon-logo" viewBox="0 0 149 36" fill="none" xmlns="http://www.w3.org/2000/svg">
<path d="M137.893 7.16116C138.518 7.09205 139.205 7.09839 139.834 7.14509C142.286 7.32756 144.065 8.41272 145.637 10.2491C145.59 9.32629 145.537 8.4165 145.59 7.49235C146.644 7.42248 147.71 7.45557 148.767 7.4584L148.765 20.4935C148.77 23.1067 149 25.9203 148.548 28.4928C148.288 29.9781 147.767 31.4379 146.844 32.6442C145.589 34.2864 144.005 34.9624 142.003 35.2196C142.726 34.3573 143.419 33.4828 143.996 32.5156C145.5 29.3541 145.524 26.2767 145.568 22.8599C144.25 24.4237 142.854 25.475 140.804 25.856C138.386 26.3023 135.89 25.7719 133.863 24.3802C131.891 23.0141 130.57 20.7384 130.161 18.3947C129.71 15.8137 130.227 13.0229 131.745 10.8694C133.263 8.71545 135.343 7.60949 137.893 7.16116ZM140.75 22.7162C144.127 22.0185 146.295 18.7076 145.583 15.3324C144.872 11.9578 141.553 9.80393 138.18 10.5288C134.828 11.2496 132.688 14.5458 133.395 17.9021C134.103 21.2574 137.391 23.4102 140.75 22.7162Z" fill="#649179"/>
<path d="M89.3881 7.11251C94.6135 6.32875 99.4843 9.93434 100.261 15.1612C101.037 20.3885 97.4233 25.2537 92.1951 26.0224C86.9782 26.7891 82.1253 23.1851 81.351 17.9692C80.5767 12.7527 84.1731 7.89467 89.3881 7.11251ZM91.8765 22.7549C95.2885 22.1385 97.5434 18.8588 96.8967 15.4524C96.251 12.0464 92.9514 9.8206 89.5507 10.4969C86.1925 11.1648 84.001 14.4144 84.6392 17.7782C85.2773 21.142 88.5069 23.3629 91.8765 22.7549Z" fill="#649179"/>
<path d="M58.6359 7.15302C59.3789 7.1187 60.1517 7.08183 60.8875 7.20729C62.981 7.56438 64.0741 8.80923 65.2276 10.4527C65.5522 9.92332 65.9279 9.41563 66.3623 8.97137C67.5552 7.7511 69.2027 7.13459 70.8974 7.1257C72.7184 7.11615 74.5409 7.57903 75.856 8.90576C76.6634 9.73565 77.2288 10.7703 77.4926 11.8981C77.9558 13.823 77.7573 16.0216 77.7554 17.9995L77.7611 25.2982L74.454 25.2897L74.4483 18.2528C74.4492 16.6494 74.5958 14.8739 74.2686 13.2994C74.1372 12.6688 73.8876 12.092 73.4603 11.6049C72.8068 10.8597 71.7166 10.3633 70.7279 10.3343C69.5309 10.299 68.2775 10.6158 67.4108 11.4806C66.8209 12.0693 66.4458 12.8383 66.2431 13.6402C65.7496 15.5934 66.0015 19.4186 66.0084 21.577L66.0317 25.2935L62.6908 25.3133L62.7132 18.2084C62.7197 16.6135 62.8982 14.7935 62.5391 13.2421C62.3757 12.5364 62.0431 11.8644 61.529 11.3485C60.7866 10.6037 59.783 10.3331 58.754 10.3414C57.6502 10.3503 56.5572 10.6847 55.7778 11.4956C55.1459 12.1528 54.7635 13.0402 54.5742 13.9245C54.2546 15.4175 54.3979 17.089 54.3994 18.6121L54.4076 25.3048L51.0399 25.2906C51.2034 23.2882 51.0526 20.5937 51.0533 18.4996C51.0544 14.8427 51.1598 11.1426 51.0293 7.49035C52.1558 7.49111 53.2987 7.53252 54.4213 7.43334L54.4245 9.90073C55.6283 8.39787 56.7474 7.60324 58.6359 7.15302Z" fill="#649179"/>
<path d="M25.9287 7.16538C26.2986 7.12114 26.6903 7.13003 27.0628 7.12634C29.0967 7.10649 31.2096 7.62411 32.6904 9.09189C33.4226 9.8177 33.9159 10.7154 34.1715 11.7107C34.6523 13.5834 34.4322 15.8032 34.4344 17.7272L34.4418 25.3029L31.1325 25.2935L31.1465 23.1246C30.1462 24.3442 28.983 25.2509 27.4514 25.6877C25.5695 26.2257 23.1086 26.0725 21.398 25.0694C20.0108 24.2554 19.3277 23.1246 18.9048 21.6129C18.791 20.3498 18.9097 19.1482 19.6216 18.06C21.145 15.7295 24.2301 15.3863 26.7341 14.9552C28.2094 14.7009 29.6859 14.4635 31.1465 14.1326C31.1182 13.3314 31.0016 12.5508 30.5811 11.8525C30.0901 11.037 29.2813 10.5059 28.365 10.2834C27.1438 9.98693 25.5959 10.1018 24.522 10.7712C23.5134 11.4 23.0442 12.3593 22.7707 13.4732C21.6334 13.4166 20.5058 13.4417 19.3681 13.4672C19.6985 12.2004 20.0211 10.9828 20.7948 9.90128C22.0611 8.13086 23.8599 7.51292 25.9287 7.16538ZM23.2137 22.4156C24.4706 23.1691 26.046 23.2797 27.4497 22.9185C28.7039 22.5961 29.9422 21.8568 30.5904 20.7043C31.2355 19.5585 31.1562 18.2774 31.1446 17.0124L31.0399 16.9302C29.9484 17.0219 28.8763 17.2459 27.7972 17.4275C26.196 17.696 23.9662 17.765 22.81 19.0621C22.3629 19.5641 22.2216 20.1371 22.278 20.7979C22.3388 21.5098 22.6937 21.9561 23.2137 22.4156Z" fill="#649179"/>
<path d="M0 0.347046C1.10228 0.400179 2.20021 0.342882 3.30116 0.381455C3.21626 3.60925 3.45073 6.86664 3.24727 10.0873C3.50405 9.76334 3.75034 9.42885 4.02262 9.11752C5.10533 7.88024 6.7274 7.20492 8.35099 7.13354C10.2228 7.05128 12.073 7.47739 13.4811 8.77064C14.4221 9.63495 15.0608 10.734 15.3859 11.9669C15.8035 13.5506 15.6783 15.3277 15.6776 16.9538C15.6765 19.7249 15.5646 22.5394 15.7 25.3057L12.4346 25.2925C12.3617 22.4676 12.4127 19.6294 12.4053 16.8026C12.4331 15.028 12.5652 12.9226 11.2389 11.5471C10.4185 10.6961 9.30096 10.3362 8.14044 10.3199C6.8522 10.3019 5.61057 10.6866 4.69246 11.6207C4.14524 12.183 3.75544 12.8791 3.56219 13.6394C3.13959 15.2549 3.30646 17.1656 3.30466 18.8324C3.29974 20.9851 3.31033 23.1388 3.33643 25.2925L0.0388582 25.2991C0.000568274 16.9926 0.206955 8.64906 0 0.347046Z" fill="#649179"/>
<path d="M111.606 7.15674C111.92 7.14247 112.234 7.13311 112.548 7.12857C114.362 7.1108 116.181 7.60564 117.493 8.91232C118.348 9.76245 118.878 10.8593 119.155 12.0228C119.621 13.9824 119.447 16.1095 119.445 18.1129L119.447 25.3057L116.079 25.3019C116.112 23.6805 116.08 22.0515 116.09 20.4282C116.102 18.3672 116.362 15.1887 115.818 13.2754C115.517 12.2209 114.896 11.2516 113.901 10.7354C112.674 10.0983 111.029 10.2568 109.751 10.6645C109.235 10.9314 108.785 11.2071 108.365 11.621C107.694 12.2829 107.394 13.0633 107.198 13.9643C106.856 15.5404 106.982 17.2563 106.983 18.8607L106.995 25.3123C105.885 25.2915 104.774 25.3057 103.664 25.3057C103.756 19.375 103.676 13.4276 103.68 7.49436L106.99 7.4902C106.996 8.33816 106.984 9.18687 106.982 10.0349C108.184 8.28058 109.583 7.60441 111.606 7.15674Z" fill="#649179"/>
<path d="M46.2504 7.15248C46.9117 7.12298 47.5767 7.1331 48.2387 7.13074C48.2616 8.33682 48.2442 9.54603 48.2425 10.7524C47.9923 10.7427 47.7419 10.7345 47.4915 10.7281C45.9844 10.6911 44.353 10.8865 43.2296 12.0064C42.6349 12.5993 42.2732 13.3743 42.081 14.1836C41.7164 15.7181 41.835 17.417 41.8343 18.9845L41.8549 25.3029C41.1997 25.3048 39.0868 25.5421 38.5414 25.1733L38.5133 24.8387C38.3883 19.0734 38.4846 13.2764 38.5206 7.50919L41.8976 7.48991C41.8034 8.43439 41.8512 9.39561 41.8717 10.3433C43.1434 8.45699 43.9543 7.71255 46.2504 7.15248Z" fill="#649179"/>
<path d="M123.315 7.49934C124.426 7.50709 125.537 7.50709 126.648 7.49915V25.3058C125.532 25.2935 124.415 25.2992 123.299 25.3247C123.373 19.3855 123.316 13.439 123.315 7.49934Z" fill="#649179"/>
<path d="M124.295 0.342203C124.705 0.318662 125.156 0.2695 125.557 0.365556C126.097 0.494891 126.605 0.888376 126.866 1.37735C127.121 1.86595 127.159 2.43936 126.971 2.95745C126.716 3.64109 126.221 3.99242 125.585 4.28635C125.156 4.31292 124.727 4.33467 124.311 4.20457C123.77 4.03525 123.285 3.64488 123.034 3.13217C122.812 2.68366 122.779 2.1649 122.942 1.69199C123.182 1.01289 123.677 0.650697 124.295 0.342203Z" fill="#649179"/>
</symbol>

</defs>
</svg>
