<svg aria-hidden="true" style="position: absolute; width: 0; height: 0; overflow: hidden;" version="1.1" xmlns="http://www.w3.org/2000/svg" xmlns:xlink="http://www.w3.org/1999/xlink">
<defs>
<symbol id="icon-bookmark-alternative" viewBox="0 0 32 32">
<path stroke-linejoin="round" stroke-linecap="round" stroke-miterlimit="4" stroke-width="1" d="M15.996 4.5c2.033 0 3.864 0.233 5.177 0.463 1.168 0.205 2.090 1.002 2.388 2.118 0.47 1.764 1.011 4.734 0.931 8.91-0.089 4.622-0.845 7.784-1.48 9.652-0.131 0.384-0.413 0.586-0.728 0.635-0.325 0.051-0.714-0.060-1.023-0.377-0.795-0.816-1.78-1.777-2.702-2.539-0.46-0.38-0.916-0.72-1.332-0.966-0.395-0.235-0.83-0.434-1.23-0.434-0.395 0-0.85 0.194-1.274 0.427-0.448 0.245-0.95 0.582-1.466 0.963-1.033 0.761-2.161 1.725-3.076 2.54-0.343 0.306-0.755 0.383-1.087 0.297-0.324-0.085-0.6-0.328-0.694-0.747-0.43-1.903-0.9-5.002-0.9-9.442 0-4.364 0.511-7.273 0.952-8.97 0.282-1.084 1.175-1.856 2.314-2.057 1.569-0.294 3.377-0.466 5.224-0.473l0.006-0z"></path>
</symbol>
<symbol id="icon-bookmark-button" viewBox="0 0 32 32">
<path fill="none" stroke="#374f42" style="stroke: var(--color1, #374f42)" stroke-linejoin="miter" stroke-linecap="butt" stroke-miterlimit="4" stroke-width="0.8" d="M16 0.4c8.616 0 15.6 6.984 15.6 15.6s-6.984 15.6-15.6 15.6c-8.616 0-15.6-6.984-15.6-15.6s6.984-15.6 15.6-15.6z"></path>
<path fill="none" stroke="#374f42" style="stroke: var(--color1, #374f42)" stroke-linejoin="round" stroke-linecap="round" stroke-miterlimit="4" stroke-width="0.8" d="M13.37 21.7h-3.070v-3.075l6.358-6.37M13.37 21.7h8.33M13.37 21.7l6.358-6.37M16.658 12.254l1.315-1.318c0.392-0.393 0.935-0.637 1.535-0.637s1.142 0.243 1.535 0.637l0 0c0.393 0.394 0.636 0.937 0.636 1.538s-0.243 1.144-0.636 1.538l-1.315 1.318M16.658 12.254l3.070 3.076"></path>
</symbol>
<symbol id="icon-bookmark-icon" viewBox="0 0 32 32">
<path fill="none" stroke="#374f42" style="stroke: var(--color1, #374f42)" stroke-linejoin="round" stroke-linecap="round" stroke-miterlimit="4" stroke-width="1.3333" d="M11.616 25.5h-5.116v-5.125l10.596-10.616M11.616 25.5h13.884M11.616 25.5l10.596-10.617M17.096 9.76l2.192-2.197c0.654-0.656 1.559-1.061 2.558-1.061s1.904 0.406 2.558 1.061l0 0c0.655 0.656 1.059 1.562 1.059 2.563s-0.405 1.906-1.059 2.563l0-0-2.192 2.196M17.096 9.76l5.116 5.124"></path>
</symbol>
<symbol id="icon-burger-regular" viewBox="0 0 32 32">
<path stroke-linejoin="miter" stroke-linecap="round" stroke-miterlimit="4" stroke-width="1" d="M7.5 9.5h17M7.5 21.5h17M7.5 15.5h17"></path>
</symbol>
<symbol id="icon-chevron-down" viewBox="0 0 32 32">
<path stroke-linejoin="round" stroke-linecap="round" stroke-miterlimit="4" stroke-width="1" d="M25 11.5l-9 9-9-9"></path>
</symbol>
<symbol id="icon-chevron-down-small" viewBox="0 0 32 32">
<path stroke-linejoin="round" stroke-linecap="round" stroke-miterlimit="4" stroke-width="1" d="M22 13l-6 6-6-6"></path>
</symbol>
<symbol id="icon-chevron-left" viewBox="0 0 32 32">
<path stroke-linejoin="round" stroke-linecap="round" stroke-miterlimit="4" stroke-width="1" d="M20.5 25l-9-9 9-9"></path>
</symbol>
<symbol id="icon-chevron-left-small" viewBox="0 0 32 32">
<path stroke-linejoin="round" stroke-linecap="round" stroke-miterlimit="4" stroke-width="1" d="M19 22l-6-6 6-6"></path>
</symbol>
<symbol id="icon-chevron-right" viewBox="0 0 32 32">
<path stroke-linejoin="round" stroke-linecap="round" stroke-miterlimit="4" stroke-width="1" d="M11.5 7l9 9-9 9"></path>
</symbol>
<symbol id="icon-chevron-right-small" viewBox="0 0 32 32">
<path stroke-linejoin="round" stroke-linecap="round" stroke-miterlimit="4" stroke-width="1" d="M13 10l6 6-6 6"></path>
</symbol>
<symbol id="icon-chevron-up" viewBox="0 0 32 32">
<path stroke-linejoin="round" stroke-linecap="round" stroke-miterlimit="4" stroke-width="1" d="M7 20.5l9-9 9 9"></path>
</symbol>
<symbol id="icon-chevron-up-small" viewBox="0 0 32 32">
<path stroke-linejoin="round" stroke-linecap="round" stroke-miterlimit="4" stroke-width="1" d="M10 19l6-6 6 6"></path>
</symbol>
<symbol id="icon-close-small" viewBox="0 0 32 32">
<path stroke-linejoin="round" stroke-linecap="round" stroke-miterlimit="4" stroke-width="1" d="M10 10l6 6M16 16l-6 6M16 16l6 6M16 16l6-6"></path>
</symbol>
<symbol id="icon-delete" viewBox="0 0 32 32">
<path stroke-linejoin="round" stroke-linecap="round" stroke-miterlimit="4" stroke-width="1" d="M16 21.846v-8.77M6.5 9.424h2.192M25.5 9.424h-2.192M19.654 9.424h-7.308M19.654 9.424v-1.462c0-0.808-0.654-1.462-1.462-1.462h-4.384c-0.807 0-1.462 0.654-1.462 1.462v1.461M19.654 9.423h3.654M12.346 9.423h-3.654M23.308 9.423v13.154c0 1.614-1.309 2.923-2.923 2.923v0h-8.77c-1.614 0-2.923-1.309-2.923-2.923v0-13.154"></path>
</symbol>
<symbol id="icon-down" viewBox="0 0 32 32">
<path stroke-linejoin="round" stroke-linecap="round" stroke-miterlimit="4" stroke-width="1" d="M15.995 5.996l0.003 20.008M15.998 26.004l5.387-5.387M15.998 26.004l-5.386-5.387"></path>
</symbol>
<symbol id="icon-eye" viewBox="0 0 32 32">
<path stroke-linejoin="miter" stroke-linecap="round" stroke-miterlimit="4" stroke-width="1" d="M15.654 11.91c-4.78 0-8.654 4.62-8.654 5.793 0 1.175 3.874 5.796 8.654 5.796s8.654-4.621 8.654-5.796c0-1.174-3.875-5.795-8.654-5.795zM15.654 11.91c-2.103 0-3.808 1.678-3.808 3.75 0 2.070 1.705 3.75 3.808 3.75s3.808-1.68 3.808-3.75c0-2.072-1.705-3.75-3.808-3.75zM25 11.91c-2.636-2.167-5.713-3.41-9-3.41s-6.364 1.243-9 3.41"></path>
</symbol>
<symbol id="icon-eye-crossed" viewBox="0 0 32 32">
<path stroke-linejoin="miter" stroke-linecap="round" stroke-miterlimit="4" stroke-width="1" d="M19.214 22.65c-1.086 0.504-2.29 0.832-3.56 0.832-4.78 0-8.654-4.654-8.654-5.837 0-0.67 1.245-2.457 3.194-3.878M23.269 19.516c0.663-0.797 1.039-1.503 1.039-1.871 0-1.183-3.875-5.838-8.654-5.838 2.103 0 3.808 1.691 3.808 3.778M15.654 19.362c-2.103 0-3.808-1.691-3.808-3.777M25 11.807c-2.636-2.18-5.713-3.433-9-3.433-1.185 0-2.342 0.162-3.461 0.473M7 11.807c0.245-0.202 0.493-0.396 0.744-0.582M7 7l16.714 16.875"></path>
</symbol>
<symbol id="icon-heart" viewBox="0 0 32 32">
<path stroke-linejoin="round" stroke-linecap="round" stroke-miterlimit="4" stroke-width="1" d="M24.098 8.903c-0.866-0.867-2.062-1.403-3.384-1.403s-2.518 0.536-3.383 1.403l-1.331 1.332-1.33-1.332c-0.866-0.867-2.062-1.403-3.384-1.403s-2.518 0.536-3.384 1.403l-0 0c-0.866 0.867-1.401 2.065-1.401 3.387s0.535 2.52 1.401 3.388l-0-0 8.098 8.786 8.098-8.786c0.866-0.867 1.401-2.065 1.401-3.388s-0.535-2.52-1.401-3.388l0 0z"></path>
</symbol>
<symbol id="icon-left" viewBox="0 0 32 32">
<path stroke-linejoin="round" stroke-linecap="round" stroke-miterlimit="4" stroke-width="1" d="M25.996 16l-19.996 0.004M6 16.004l5.383 5.385M6 16.004l5.383-5.386"></path>
</symbol>
<symbol id="icon-left-short" viewBox="0 0 32 32">
<path stroke-linejoin="round" stroke-linecap="round" stroke-miterlimit="4" stroke-width="1" d="M22 16.004h-12M10 16.004l5.384 5.385M10 16.004l5.384-5.386"></path>
</symbol>
<symbol id="icon-log-in" viewBox="0 0 32 32">
<path stroke-linejoin="round" stroke-linecap="round" stroke-miterlimit="4" stroke-width="1" d="M25.5 16h-14.615M10.885 16l4.384-4.385M10.885 16l4.384 4.385M13.077 6.5h-3.654c-1.614 0-2.923 1.309-2.923 2.923v0 13.154c0 1.614 1.309 2.923 2.923 2.923v0h3.654"></path>
</symbol>
<symbol id="icon-logo" viewBox="0 0 132 32">
<path fill="#649179" style="fill: var(--color2, #649179)" d="M122.572 6.365c0.556-0.061 1.166-0.056 1.725-0.014 2.18 0.163 3.761 1.127 5.158 2.759-0.042-0.82-0.089-1.629-0.042-2.451 0.937-0.062 1.884-0.032 2.824-0.030l-0.002 11.587c0.004 2.324 0.209 4.824-0.193 7.111-0.231 1.32-0.694 2.618-1.515 3.69-1.116 1.46-2.524 2.060-4.303 2.29 0.643-0.767 1.259-1.544 1.772-2.404 1.337-2.811 1.358-5.547 1.397-8.583-1.172 1.39-2.412 2.324-4.235 2.663-0.451 0.087-0.969 0.137-1.499 0.137-1.746 0-3.365-0.542-4.699-1.467l0.027 0.018c-1.753-1.214-2.927-3.237-3.291-5.32-0.401-2.294 0.059-4.775 1.408-6.69s3.198-2.898 5.465-3.296zM125.111 20.192c2.575-0.508 4.491-2.749 4.491-5.436 0-3.057-2.479-5.536-5.536-5.536-0.424 0-0.836 0.048-1.233 0.138l0.037-0.007c-2.501 0.567-4.341 2.772-4.341 5.405 0 3.057 2.479 5.536 5.536 5.536 0.37 0 0.731-0.036 1.081-0.105l-0.035 0.006zM79.456 6.323c4.644-0.697 8.974 2.508 9.665 7.154s-2.523 8.972-7.17 9.654c-4.637 0.682-8.951-2.522-9.639-7.158-0.059-0.375-0.092-0.807-0.092-1.247 0-4.248 3.117-7.767 7.188-8.397l0.048-0.006zM81.668 20.227c2.61-0.484 4.56-2.743 4.56-5.457 0-3.063-2.483-5.545-5.545-5.545-0.348 0-0.689 0.032-1.020 0.094l0.034-0.005c-2.61 0.484-4.56 2.743-4.56 5.457 0 3.062 2.483 5.545 5.545 5.545 0.348 0 0.689-0.032 1.020-0.094l-0.034 0.005zM52.121 6.358c0.66-0.030 1.348-0.063 2.002 0.048 1.86 0.317 2.832 1.424 3.858 2.885 0.302-0.498 0.635-0.929 1.010-1.32l-0.002 0.003c1.060-1.084 2.524-1.632 4.031-1.64 1.619-0.009 3.239 0.403 4.408 1.582 0.696 0.715 1.206 1.616 1.447 2.621l0.008 0.039c0.412 1.711 0.235 3.666 0.233 5.424l0.005 6.487-2.94-0.007-0.005-6.255c0.001-1.426 0.132-3.004-0.16-4.404-0.116-0.56-0.338-1.073-0.718-1.506-0.58-0.662-1.549-1.104-2.428-1.129-1.064-0.032-2.178 0.249-2.948 1.019-0.524 0.523-0.858 1.206-1.038 1.92-0.438 1.735-0.215 5.136-0.209 7.054l0.021 3.303-2.97 0.018 0.020-6.316c0.006-1.418 0.164-3.035-0.155-4.414-0.145-0.628-0.441-1.225-0.898-1.684-0.66-0.661-1.552-0.902-2.467-0.895-0.981 0.009-1.953 0.306-2.645 1.027-0.562 0.584-0.901 1.372-1.070 2.158-0.284 1.328-0.156 2.813-0.156 4.167l0.008 5.949-2.994-0.012c0.145-1.78 0.012-4.175 0.012-6.036 0.001-3.251 0.095-6.54-0.021-9.787 1.002 0.001 2.018 0.038 3.015-0.051l0.004 2.194c1.069-1.336 2.064-2.043 3.742-2.443zM23.048 6.369c0.329-0.039 0.676-0.031 1.008-0.035 1.808-0.018 3.686 0.443 5.002 1.748 0.625 0.623 1.085 1.411 1.31 2.293l0.007 0.035c0.427 1.664 0.231 3.637 0.233 5.348l0.007 6.734-2.942-0.009 0.012-1.927c-0.889 1.084-1.923 1.89-3.284 2.278-1.672 0.478-3.86 0.342-5.38-0.55-1.233-0.724-1.84-1.728-2.216-3.072-0.101-1.123 0.004-2.191 0.637-3.158 1.354-2.071 4.096-2.377 6.322-2.76 1.311-0.226 2.624-0.437 3.922-0.731-0.025-0.713-0.128-1.406-0.502-2.027-0.436-0.725-1.156-1.197-1.97-1.396-1.085-0.263-2.462-0.161-3.416 0.434-0.897 0.559-1.314 1.412-1.556 2.402-1.012-0.050-2.013-0.028-3.025-0.005 0.293-1.126 0.58-2.208 1.268-3.17 1.125-1.573 2.724-2.123 4.564-2.432zM20.635 19.924c1.117 0.67 2.517 0.769 3.765 0.448 1.115-0.287 2.215-0.944 2.791-1.969 0.573-1.019 0.503-2.157 0.493-3.282l-0.093-0.073c-0.971 0.082-1.924 0.281-2.883 0.442-1.423 0.239-3.404 0.3-4.433 1.453-0.397 0.446-0.523 0.956-0.473 1.543 0.053 0.633 0.37 1.029 0.832 1.438zM0 0.308c0.98 0.047 1.956-0.004 2.934 0.030-0.076 2.869 0.133 5.765-0.048 8.628 0.228-0.288 0.447-0.585 0.69-0.862 0.962-1.1 2.404-1.699 3.846-1.762 1.664-0.074 3.308 0.305 4.56 1.455 0.806 0.746 1.398 1.711 1.684 2.8l0.009 0.041c0.372 1.408 0.26 2.987 0.26 4.433-0.002 2.462-0.1 4.964 0.020 7.424l-2.902-0.012c-0.065-2.51-0.020-5.034-0.027-7.547 0.025-1.577 0.142-3.449-1.036-4.671-0.729-0.756-1.723-1.076-2.755-1.091-1.145-0.016-2.249 0.326-3.065 1.156-0.472 0.485-0.822 1.091-0.998 1.768l-0.006 0.028c-0.375 1.436-0.228 3.134-0.228 4.615-0.004 1.914 0.004 3.828 0.028 5.742l-2.929 0.006c-0.036-7.384 0.148-14.8-0.036-22.18zM99.205 6.362c0.279-0.013 0.558-0.021 0.837-0.025 1.612-0.016 3.229 0.424 4.396 1.585 0.76 0.756 1.231 1.731 1.477 2.764 0.414 1.742 0.26 3.634 0.258 5.413l0.002 6.395-2.994-0.004c0.029-1.442 0.001-2.889 0.010-4.332 0.011-1.831 0.242-4.658-0.242-6.358-0.268-0.937-0.82-1.798-1.704-2.258-1.091-0.566-2.553-0.425-3.689-0.062-0.459 0.236-0.859 0.482-1.232 0.85-0.596 0.588-0.863 1.282-1.037 2.083-0.304 1.401-0.192 2.926-0.191 4.353l0.011 5.734c-0.987-0.018-1.974-0.005-2.961-0.005 0.082-5.272 0.011-10.558 0.014-15.833l2.942-0.004c0.005 0.754-0.005 1.508-0.007 2.262 1.068-1.559 2.312-2.16 4.11-2.558zM41.111 6.357c0.588-0.026 1.18-0.017 1.768-0.019 0.020 1.072 0.004 2.147 0.004 3.219-0.222-0.009-0.445-0.016-0.668-0.021-1.34-0.033-2.789 0.141-3.788 1.136-0.529 0.527-0.851 1.216-1.021 1.936-0.324 1.364-0.219 2.874-0.22 4.267l0.018 5.617c-0.581 0.002-2.46 0.213-2.945-0.116l-0.025-0.297c-0.111-5.125-0.025-10.278 0.007-15.404l3.002-0.018c-0.084 0.84-0.042 1.695-0.023 2.537 1.13-1.676 1.851-2.338 3.892-2.836zM109.613 6.667c0.988 0.006 1.975 0.006 2.963 0v15.828c-0.294-0.004-0.642-0.006-0.99-0.006-0.699 0-1.396 0.008-2.091 0.024l0.103-0.002c0.066-5.28 0.015-10.565 0.014-15.845zM110.484 0.304c0.364-0.020 0.765-0.065 1.122 0.021 0.504 0.132 0.915 0.457 1.159 0.889l0.005 0.009c0.227 0.435 0.26 0.944 0.093 1.404-0.227 0.608-0.667 0.92-1.232 1.182-0.381 0.023-0.763 0.043-1.132-0.073-0.498-0.157-0.899-0.499-1.13-0.943l-0.005-0.011c-0.109-0.215-0.173-0.469-0.173-0.738 0-0.194 0.033-0.381 0.094-0.554l-0.004 0.012c0.213-0.604 0.653-0.925 1.203-1.2z"></path>
</symbol>
<symbol id="icon-log-out" viewBox="0 0 32 32">
<path stroke-linejoin="round" stroke-linecap="round" stroke-miterlimit="4" stroke-width="1" d="M13.077 6.5h-3.654c-1.614 0-2.923 1.309-2.923 2.923v0 13.154c0 1.614 1.309 2.923 2.923 2.923v0h3.654M11.5 16h14.615M26.115 16l-4.384 4.385M26.115 16l-4.384-4.385"></path>
</symbol>
<symbol id="icon-photo" viewBox="0 0 38 32">
<path stroke-linejoin="miter" stroke-linecap="butt" stroke-miterlimit="4" stroke-width="1.0490" d="M25.834 18.324c0 3.209-3.111 5.81-6.948 5.81s-6.948-2.601-6.948-5.81c0-3.209 3.111-5.81 6.948-5.81s6.948 2.601 6.948 5.81z"></path>
<path stroke-linejoin="miter" stroke-linecap="butt" stroke-miterlimit="4" stroke-width="1.0490" d="M0.82 26.336v-14.161c0-2.38 2.307-4.309 5.153-4.309 1.952 0 3.736-0.922 4.609-2.382l1.168-1.953c0.966-1.616 2.942-2.637 5.103-2.637h4.066c2.161 0 4.136 1.021 5.103 2.637l1.168 1.953c0.873 1.46 2.657 2.382 4.609 2.382 2.846 0 5.153 1.929 5.153 4.309v14.161c0 2.635-2.554 4.77-5.705 4.77h-24.721c-3.151 0-5.705-2.136-5.705-4.77z"></path>
</symbol>
<symbol id="icon-photo-upload-container" viewBox="0 0 32 32">
<path fill="#649179" style="fill: var(--color2, #649179)" d="M16 0c8.837 0 16 7.163 16 16s-7.163 16-16 16c-8.837 0-16-7.163-16-16s7.163-16 16-16z"></path>
<path fill="none" stroke="#070707" style="stroke: var(--color3, #070707)" stroke-linejoin="miter" stroke-linecap="butt" stroke-miterlimit="4" stroke-width="0.4706" d="M19.116 15.748c0 1.439-1.395 2.606-3.116 2.606s-3.116-1.167-3.116-2.606c0-1.439 1.395-2.606 3.116-2.606s3.116 1.167 3.116 2.606z"></path>
<path fill="none" stroke="#070707" style="stroke: var(--color3, #070707)" stroke-linejoin="miter" stroke-linecap="butt" stroke-miterlimit="4" stroke-width="0.4706" d="M7.897 19.342v-6.352c0-1.067 1.035-1.933 2.311-1.933 0.875 0 1.676-0.414 2.067-1.068l0.524-0.876c0.433-0.725 1.32-1.183 2.289-1.183h1.824c0.969 0 1.855 0.458 2.289 1.183l0.524 0.876c0.392 0.655 1.192 1.068 2.067 1.068 1.276 0 2.312 0.865 2.312 1.933v6.352c0 1.182-1.146 2.14-2.559 2.14h-11.088c-1.413 0-2.559-0.958-2.559-2.14z"></path>
</symbol>
<symbol id="icon-right" viewBox="0 0 32 32">
<path stroke-linejoin="round" stroke-linecap="round" stroke-miterlimit="4" stroke-width="1" d="M6 16.004l19.996-0.004M25.996 16l-5.383-5.386M25.996 16l-5.383 5.385"></path>
</symbol>
<symbol id="icon-right-short" viewBox="0 0 32 32">
<path stroke-linejoin="round" stroke-linecap="round" stroke-miterlimit="4" stroke-width="1" d="M10 16.004h12M22 16.004l-5.384 5.385M22 16.004l-5.384-5.386"></path>
</symbol>
<symbol id="icon-search" viewBox="0 0 32 32">
<path stroke-linejoin="miter" stroke-linecap="round" stroke-miterlimit="4" stroke-width="1" d="M25 25l-4.413-4.405M20.587 20.595c1.474-1.446 2.388-3.459 2.388-5.685 0-4.397-3.565-7.962-7.962-7.962-2.222 0-4.231 0.91-5.676 2.378l-0.001 0.001c-1.413 1.436-2.285 3.408-2.285 5.583 0 4.397 3.565 7.962 7.962 7.962 2.171 0 4.139-0.869 5.576-2.278l-0.001 0.001z"></path>
</symbol>
<symbol id="icon-share-ios-big" viewBox="0 0 32 32">
<path stroke-linejoin="round" stroke-linecap="round" stroke-miterlimit="4" stroke-width="1" d="M16 19v-15M16 4l-4.042 3.6M16 4l4.042 3.6M12.16 11h-4.045c-0.947 0-1.715 0.768-1.715 1.714v13.572c0 0.947 0.768 1.714 1.715 1.714h15.771c0.947 0 1.714-0.767 1.714-1.714v-13.572c0-0.946-0.767-1.714-1.714-1.714h-4.046"></path>
</symbol>
<symbol id="icon-up" viewBox="0 0 32 32">
<path stroke-linejoin="round" stroke-linecap="round" stroke-miterlimit="4" stroke-width="1" d="M15.998 26.004l-0.004-20.008M15.994 5.996l-5.387 5.387M15.994 5.996l5.386 5.387"></path>
</symbol>
<symbol id="icon-user" viewBox="0 0 32 32">
<path stroke-linejoin="miter" stroke-linecap="butt" stroke-miterlimit="4" stroke-width="1" d="M20.384 10.885c0 0.020 0 0.043 0 0.066 0 2.422-1.963 4.385-4.385 4.385s-4.385-1.963-4.385-4.385c0-0.023 0-0.047 0.001-0.070l-0 0.004c0-2.422 1.963-4.385 4.385-4.385s4.385 1.963 4.385 4.385v0zM16 25.5c4.343 0 6.845-1.12 8.006-1.841 0.543-0.338 0.811-0.96 0.756-1.603-0.076-0.879-0.383-1.757-0.695-2.453-0.411-0.914-1.361-1.41-2.364-1.41h-11.407c-1.002 0-1.953 0.496-2.363 1.41-0.313 0.696-0.62 1.574-0.695 2.453-0.056 0.644 0.212 1.265 0.755 1.603 1.161 0.72 3.663 1.841 8.007 1.841z"></path>
</symbol>
</defs>
</svg>
