<svg aria-hidden="true" style="position: absolute; width: 0; height: 0; overflow: hidden;" version="1.1" xmlns="http://www.w3.org/2000/svg" xmlns:xlink="http://www.w3.org/1999/xlink">
<defs>
<symbol id="icon-arrows-down" viewBox="0 0 32 32">
<path stroke-linejoin="round" stroke-linecap="round" stroke-miterlimit="4" stroke-width="1" d="M15.995 5.996l0.004 20.007M15.998 26.004l5.386-5.386M15.998 26.004l-5.387-5.386"></path>
</symbol>
<symbol id="icon-arrows-left" viewBox="0 0 32 32">
<path stroke-linejoin="round" stroke-linecap="round" stroke-miterlimit="4" stroke-width="1" d="M25.996 16l-19.996 0.004M6 16.004l5.384 5.386M6 16.004l5.384-5.386"></path>
</symbol>
<symbol id="icon-arrows-left-short" viewBox="0 0 32 32">
<path stroke-linejoin="round" stroke-linecap="round" stroke-miterlimit="4" stroke-width="1" d="M22 16.004h-12M10 16.004l5.384 5.386M10 16.004l5.384-5.386"></path>
</symbol>
<symbol id="icon-arrows-right" viewBox="0 0 32 32">
<path stroke-linejoin="round" stroke-linecap="round" stroke-miterlimit="4" stroke-width="1" d="M6 16.004l19.996-0.004M25.996 16l-5.384-5.386M25.996 16l-5.384 5.386"></path>
</symbol>
<symbol id="icon-arrows-right-short" viewBox="0 0 32 32">
<path stroke-linejoin="round" stroke-linecap="round" stroke-miterlimit="4" stroke-width="1" d="M10 16.004h12M22 16.004l-5.384 5.386M22 16.004l-5.384-5.386"></path>
</symbol>
<symbol id="icon-arrows-up" viewBox="0 0 32 32">
<path stroke-linejoin="round" stroke-linecap="round" stroke-miterlimit="4" stroke-width="1" d="M15.998 26.004l-0.004-20.007M15.994 5.996l-5.386 5.387M15.994 5.996l5.387 5.387"></path>
</symbol>
<symbol id="icon-bookmark" viewBox="0 0 32 32">
<path stroke-linejoin="round" stroke-linecap="round" stroke-miterlimit="4" stroke-width="1.3333" d="M11.615 25.5h-5.115v-5.125l10.596-10.617M11.615 25.5h13.885M11.615 25.5l10.596-10.617M17.096 9.758l2.192-2.197c1.413-1.415 3.703-1.415 5.115 0s1.413 3.71 0 5.125l-2.192 2.197M17.096 9.758l5.115 5.125"></path>
</symbol>
<symbol id="icon-bookmark-alternative" viewBox="0 0 32 32">
<path stroke-linejoin="round" stroke-linecap="round" stroke-miterlimit="4" stroke-width="1" d="M15.996 4.5c2.033 0 3.864 0.233 5.177 0.463 1.168 0.205 2.090 1.002 2.388 2.118 0.471 1.764 1.012 4.734 0.932 8.909-0.089 4.623-0.845 7.785-1.48 9.652-0.131 0.385-0.413 0.586-0.727 0.636-0.325 0.051-0.714-0.060-1.023-0.377-0.795-0.816-1.781-1.778-2.702-2.539-0.46-0.38-0.916-0.72-1.331-0.967-0.395-0.235-0.831-0.433-1.231-0.434-0.394 0-0.849 0.195-1.273 0.427-0.448 0.245-0.95 0.583-1.466 0.963-1.033 0.762-2.161 1.725-3.076 2.541-0.343 0.306-0.754 0.382-1.087 0.296-0.324-0.084-0.599-0.328-0.693-0.746-0.429-1.904-0.9-5.003-0.9-9.442 0-4.364 0.511-7.273 0.952-8.971 0.281-1.083 1.174-1.855 2.313-2.057 1.316-0.233 3.17-0.473 5.23-0.473z"></path>
</symbol>
<symbol id="icon-burger-regular" viewBox="0 0 32 32">
<path stroke-linejoin="miter" stroke-linecap="round" stroke-miterlimit="4" stroke-width="1" d="M7.5 9.5h17M7.5 21.5h17M7.5 15.5h17"></path>
</symbol>
<symbol id="icon-chevron-down" viewBox="0 0 32 32">
<path stroke-linejoin="round" stroke-linecap="round" stroke-miterlimit="4" stroke-width="1" d="M25 11.5l-9 9-9-9"></path>
</symbol>
<symbol id="icon-chevron-down-small" viewBox="0 0 32 32">
<path stroke-linejoin="round" stroke-linecap="round" stroke-miterlimit="4" stroke-width="1" d="M22 13l-6 6-6-6"></path>
</symbol>
<symbol id="icon-chevron-left" viewBox="0 0 32 32">
<path stroke-linejoin="round" stroke-linecap="round" stroke-miterlimit="4" stroke-width="1" d="M20.5 25l-9-9 9-9"></path>
</symbol>
<symbol id="icon-chevron-left-small" viewBox="0 0 32 32">
<path stroke-linejoin="round" stroke-linecap="round" stroke-miterlimit="4" stroke-width="1" d="M19 22l-6-6 6-6"></path>
</symbol>
<symbol id="icon-chevron-right" viewBox="0 0 32 32">
<path stroke-linejoin="round" stroke-linecap="round" stroke-miterlimit="4" stroke-width="1" d="M11.5 7l9 9-9 9"></path>
</symbol>
<symbol id="icon-chevron-right-small" viewBox="0 0 32 32">
<path stroke-linejoin="round" stroke-linecap="round" stroke-miterlimit="4" stroke-width="1" d="M13 10l6 6-6 6"></path>
</symbol>
<symbol id="icon-chevron-up" viewBox="0 0 32 32">
<path stroke-linejoin="round" stroke-linecap="round" stroke-miterlimit="4" stroke-width="1" d="M7 20.5l9-9 9 9"></path>
</symbol>
<symbol id="icon-chevron-up-small" viewBox="0 0 32 32">
<path stroke-linejoin="round" stroke-linecap="round" stroke-miterlimit="4" stroke-width="1" d="M10 19l6-6 6 6"></path>
</symbol>
<symbol id="icon-close" viewBox="0 0 32 32">
<path stroke-linejoin="round" stroke-linecap="round" stroke-miterlimit="4" stroke-width="1" d="M7 7l9 9M16 16l-9 9M16 16l9 9M16 16l9-9"></path>
</symbol>
<symbol id="icon-close-small" viewBox="0 0 32 32">
<path stroke-linejoin="round" stroke-linecap="round" stroke-miterlimit="4" stroke-width="1" d="M10 10l6 6M16 16l-6 6M16 16l6 6M16 16l6-6"></path>
</symbol>
<symbol id="icon-delete" viewBox="0 0 32 32">
<path stroke-linejoin="round" stroke-linecap="round" stroke-miterlimit="4" stroke-width="1" d="M16 21.846v-8.769M6.5 9.423h2.192M25.5 9.423h-2.192M19.654 9.423h-7.308M19.654 9.423v-1.462c0-0.807-0.654-1.462-1.462-1.462h-4.385c-0.807 0-1.462 0.654-1.462 1.462v1.462M19.654 9.423h3.654M12.346 9.423h-3.654M23.308 9.423v13.154c0 1.614-1.309 2.923-2.923 2.923h-8.769c-1.614 0-2.923-1.309-2.923-2.923v-13.154"></path>
</symbol>
<symbol id="icon-eye" viewBox="0 0 32 32">
<path stroke-linejoin="miter" stroke-linecap="round" stroke-miterlimit="4" stroke-width="1" d="M15.654 11.909c-4.779 0-8.654 4.621-8.654 5.795s3.874 5.796 8.654 5.796c4.779 0 8.654-4.621 8.654-5.796s-3.875-5.795-8.654-5.795zM15.654 11.909c-2.103 0-3.808 1.679-3.808 3.75s1.705 3.75 3.808 3.75 3.808-1.679 3.808-3.75c0-2.071-1.705-3.75-3.808-3.75zM25 11.909c-2.636-2.166-5.713-3.409-9-3.409s-6.364 1.243-9 3.409"></path>
</symbol>
<symbol id="icon-eye-crossed" viewBox="0 0 32 32">
<path stroke-linejoin="miter" stroke-linecap="round" stroke-miterlimit="4" stroke-width="1" d="M19.214 22.65c-1.086 0.504-2.291 0.832-3.56 0.832-4.779 0-8.654-4.655-8.654-5.838 0-0.67 1.245-2.456 3.194-3.878M23.269 19.516c0.662-0.797 1.038-1.502 1.038-1.871 0-1.183-3.874-5.838-8.654-5.838 2.103 0 3.808 1.691 3.808 3.777M15.654 19.362c-2.103 0-3.808-1.691-3.808-3.777M25 11.807c-2.636-2.181-5.713-3.434-9-3.434-1.185 0-2.342 0.163-3.462 0.473M7 11.807c0.244-0.202 0.492-0.396 0.744-0.582M7 7l16.714 16.875"></path>
</symbol>
<symbol id="icon-heart" viewBox="0 0 32 32">
<path stroke-linejoin="round" stroke-linecap="round" stroke-miterlimit="4" stroke-width="1" d="M24.098 8.903c-1.869-1.871-4.899-1.871-6.768 0l-1.331 1.332-1.331-1.332c-1.869-1.871-4.899-1.871-6.768 0s-1.869 4.904 0 6.775l8.098 8.786 8.098-8.786c1.869-1.871 1.869-4.904 0-6.775z"></path>
</symbol>
<symbol id="icon-home" viewBox="0 0 32 32">
<path d="M6.5 16.524v0zM6.5 24.044v0zM24.038 25.5v0zM7.962 25.5v0zM25.5 16.524v0zM25.5 24.044v0zM24.727 14.55v0zM18.15 7.439v0zM13.85 7.439v0zM7.273 14.55v0zM13.077 18.219v0zM13.077 24.772v0zM18.192 25.5v0zM13.808 25.5v0zM18.923 18.22v0zM18.923 24.772v0zM18.192 17.491v0zM13.808 17.491v0zM6.5 16.524h-0.5v7.52h1v-7.52h-0.5zM24.038 25.5v-0.5h-16.077v1h16.077v-0.5zM25.5 16.524h-0.5v7.52h1v-7.52h-0.5zM24.727 14.55l0.367-0.339-6.577-7.112-0.734 0.679 6.577 7.112 0.367-0.339zM13.85 7.439l-0.367-0.34-6.577 7.112 0.734 0.679 6.577-7.112-0.367-0.339zM18.15 7.439l0.367-0.339c-1.356-1.466-3.678-1.466-5.034 0l0.734 0.679c0.96-1.038 2.605-1.038 3.565 0l0.367-0.34zM25.5 16.524h0.5c0-0.857-0.324-1.683-0.906-2.313l-0.734 0.679c0.412 0.446 0.64 1.029 0.64 1.634h0.5zM6.5 16.524h0.5c0-0.605 0.228-1.188 0.64-1.634l-0.734-0.679c-0.583 0.63-0.906 1.456-0.906 2.313h0.5zM6.5 24.044h-0.5c0 1.082 0.88 1.956 1.962 1.956v-1c-0.533 0-0.962-0.43-0.962-0.956h-0.5zM24.038 25.5v0.5c1.081 0 1.962-0.874 1.962-1.956h-1c0 0.526-0.429 0.956-0.962 0.956v0.5zM13.077 18.219h-0.5v6.553h1v-6.553h-0.5zM18.192 25.5v-0.5h-4.385v1h4.385v-0.5zM18.923 18.22h-0.5v6.552h1v-6.552h-0.5zM18.192 17.491v-0.5h-4.385v1h4.385v-0.5zM18.923 18.22h0.5c0-0.68-0.553-1.228-1.231-1.228v1c0.129 0 0.231 0.104 0.231 0.228h0.5zM13.077 18.219h0.5c0-0.124 0.102-0.228 0.231-0.228v-1c-0.678 0-1.231 0.548-1.231 1.228h0.5zM13.077 24.772h-0.5c0 0.68 0.553 1.228 1.231 1.228v-1c-0.129 0-0.231-0.104-0.231-0.228h-0.5zM18.192 25.5v0.5c0.678 0 1.231-0.548 1.231-1.228h-1c0 0.124-0.102 0.228-0.231 0.228v0.5z"></path>
</symbol>
<symbol id="icon-log-in" viewBox="0 0 32 32">
<path stroke-linejoin="round" stroke-linecap="round" stroke-miterlimit="4" stroke-width="1" d="M25.5 16h-14.615M10.885 16l4.385-4.385M10.885 16l4.385 4.385M13.077 6.5h-3.654c-1.614 0-2.923 1.309-2.923 2.923v13.154c0 1.614 1.309 2.923 2.923 2.923h3.654"></path>
</symbol>
<symbol id="icon-log-out" viewBox="0 0 32 32">
<path stroke-linejoin="round" stroke-linecap="round" stroke-miterlimit="4" stroke-width="1" d="M13.077 6.5h-3.654c-1.614 0-2.923 1.309-2.923 2.923v13.154c0 1.614 1.309 2.923 2.923 2.923h3.654M11.5 16h14.615M26.115 16l-4.385 4.385M26.115 16l-4.385-4.385"></path>
</symbol>
<symbol id="icon-photo" viewBox="0 0 38 32">
<path stroke-linejoin="miter" stroke-linecap="butt" stroke-miterlimit="4" stroke-width="1.0492" d="M25.834 18.324c0 3.209-3.111 5.81-6.948 5.81s-6.948-2.601-6.948-5.81c0-3.209 3.111-5.81 6.948-5.81s6.948 2.601 6.948 5.81z"></path>
<path stroke-linejoin="miter" stroke-linecap="butt" stroke-miterlimit="4" stroke-width="1.0492" d="M0.82 26.336v-14.161c0-2.38 2.307-4.309 5.153-4.309 1.952 0 3.736-0.922 4.609-2.382l1.168-1.953c0.966-1.616 2.942-2.637 5.103-2.637h4.066c2.161 0 4.136 1.021 5.103 2.637l1.168 1.953c0.873 1.46 2.657 2.382 4.609 2.382 2.846 0 5.153 1.929 5.153 4.309v14.161c0 2.635-2.554 4.77-5.705 4.77h-24.721c-3.151 0-5.705-2.136-5.705-4.77z"></path>
</symbol>
<symbol id="icon-search" viewBox="0 0 32 32">
<path stroke-linejoin="miter" stroke-linecap="round" stroke-miterlimit="4" stroke-width="1" d="M25 25l-4.413-4.405M20.587 20.595c1.443-1.441 2.336-3.433 2.336-5.634 0-4.397-3.564-7.962-7.962-7.962s-7.962 3.564-7.962 7.962c0 4.397 3.564 7.962 7.962 7.962 2.197 0 4.185-0.89 5.626-2.328z"></path>
</symbol>
<symbol id="icon-share-ios-big" viewBox="0 0 32 32">
<path stroke-linejoin="round" stroke-linecap="round" stroke-miterlimit="4" stroke-width="1" d="M16 19v-15M16 4l-4.042 3.6M16 4l4.042 3.6M12.16 11h-4.046c-0.947 0-1.714 0.768-1.714 1.714v13.572c0 0.947 0.768 1.714 1.714 1.714h15.771c0.947 0 1.714-0.768 1.714-1.714v-13.572c0-0.947-0.767-1.714-1.714-1.714h-4.046"></path>
</symbol>
<symbol id="icon-heroicons" viewBox="0 0 32 32">
<path d="M4.799 8.001c0-0.424 0.169-0.831 0.469-1.131s0.707-0.469 1.131-0.469h19.2c0.424 0 0.831 0.169 1.131 0.469s0.469 0.707 0.469 1.131-0.169 0.831-0.469 1.131c-0.3 0.3-0.707 0.469-1.131 0.469h-19.2c-0.424 0-0.831-0.169-1.131-0.469s-0.469-0.707-0.469-1.131z"></path>
<path d="M4.799 16.001c0-0.424 0.169-0.831 0.469-1.131s0.707-0.469 1.131-0.469h19.2c0.424 0 0.831 0.169 1.131 0.469s0.469 0.707 0.469 1.131c0 0.424-0.169 0.831-0.469 1.131s-0.707 0.469-1.131 0.469h-19.2c-0.424 0-0.831-0.169-1.131-0.469s-0.469-0.707-0.469-1.131z"></path>
<path d="M4.799 24.001c0-0.424 0.169-0.831 0.469-1.131s0.707-0.469 1.131-0.469h19.2c0.424 0 0.831 0.169 1.131 0.469s0.469 0.707 0.469 1.131c0 0.424-0.169 0.831-0.469 1.131s-0.707 0.469-1.131 0.469h-19.2c-0.424 0-0.831-0.169-1.131-0.469s-0.469-0.707-0.469-1.131z"></path>
</symbol>
</defs>
</svg>
